<mxfile host="app.diagrams.net" modified="2020-12-08T17:17:40.146Z" agent="5.0 (Windows NT 10.0; Win64; x64) AppleWebKit/537.36 (KHTML, like Gecko) Chrome/86.0.4240.198 Safari/537.36" etag="smQk0nTb36pXeCNlkhd4" version="13.11.0" type="github">
  <diagram id="kgpKYQtTHZ0yAKxKKP6v" name="Page-1">
    <mxGraphModel dx="1038" dy="580" grid="1" gridSize="10" guides="1" tooltips="1" connect="1" arrows="1" fold="1" page="1" pageScale="1" pageWidth="850" pageHeight="1100" math="0" shadow="0">
      <root>
        <mxCell id="0" />
        <mxCell id="1" parent="0" />
        <mxCell id="K-Yl6SajvghSehJu1Xfm-1" value="" style="shape=umlLifeline;participant=umlActor;perimeter=lifelinePerimeter;whiteSpace=wrap;html=1;container=1;collapsible=0;recursiveResize=0;verticalAlign=top;spacingTop=36;outlineConnect=0;" vertex="1" parent="1">
          <mxGeometry x="120" y="40" width="20" height="490" as="geometry" />
        </mxCell>
        <mxCell id="K-Yl6SajvghSehJu1Xfm-6" value="" style="html=1;points=[];perimeter=orthogonalPerimeter;" vertex="1" parent="K-Yl6SajvghSehJu1Xfm-1">
          <mxGeometry x="5" y="80" width="10" height="380" as="geometry" />
        </mxCell>
        <mxCell id="K-Yl6SajvghSehJu1Xfm-2" value=":GUISystem" style="shape=umlLifeline;perimeter=lifelinePerimeter;whiteSpace=wrap;html=1;container=1;collapsible=0;recursiveResize=0;outlineConnect=0;" vertex="1" parent="1">
          <mxGeometry x="240" y="40" width="100" height="490" as="geometry" />
        </mxCell>
        <mxCell id="K-Yl6SajvghSehJu1Xfm-7" value="" style="html=1;points=[];perimeter=orthogonalPerimeter;" vertex="1" parent="K-Yl6SajvghSehJu1Xfm-2">
          <mxGeometry x="45" y="90" width="10" height="370" as="geometry" />
        </mxCell>
        <mxCell id="K-Yl6SajvghSehJu1Xfm-13" value="Gửi thông tin đã chọn" style="html=1;verticalAlign=bottom;endArrow=block;" edge="1" parent="K-Yl6SajvghSehJu1Xfm-2" target="K-Yl6SajvghSehJu1Xfm-3">
          <mxGeometry width="80" relative="1" as="geometry">
            <mxPoint x="60" y="190" as="sourcePoint" />
            <mxPoint x="140" y="190" as="targetPoint" />
          </mxGeometry>
        </mxCell>
        <mxCell id="K-Yl6SajvghSehJu1Xfm-21" value="Đưa ra kết quả kiểm tra" style="html=1;verticalAlign=bottom;endArrow=open;dashed=1;endSize=8;" edge="1" parent="K-Yl6SajvghSehJu1Xfm-2" source="K-Yl6SajvghSehJu1Xfm-3">
          <mxGeometry relative="1" as="geometry">
            <mxPoint x="140" y="300" as="sourcePoint" />
            <mxPoint x="60" y="300" as="targetPoint" />
          </mxGeometry>
        </mxCell>
        <mxCell id="K-Yl6SajvghSehJu1Xfm-3" value=":Order" style="shape=umlLifeline;perimeter=lifelinePerimeter;whiteSpace=wrap;html=1;container=1;collapsible=0;recursiveResize=0;outlineConnect=0;" vertex="1" parent="1">
          <mxGeometry x="440" y="40" width="100" height="480" as="geometry" />
        </mxCell>
        <mxCell id="K-Yl6SajvghSehJu1Xfm-8" value="" style="html=1;points=[];perimeter=orthogonalPerimeter;" vertex="1" parent="K-Yl6SajvghSehJu1Xfm-3">
          <mxGeometry x="45" y="120" width="10" height="340" as="geometry" />
        </mxCell>
        <mxCell id="K-Yl6SajvghSehJu1Xfm-17" value="Kiểm tra thông tin" style="edgeStyle=orthogonalEdgeStyle;html=1;align=left;spacingLeft=2;endArrow=block;rounded=0;entryX=1;entryY=0;" edge="1" parent="K-Yl6SajvghSehJu1Xfm-3">
          <mxGeometry x="0.6923" y="-10" relative="1" as="geometry">
            <mxPoint x="55" y="190" as="sourcePoint" />
            <Array as="points">
              <mxPoint x="80" y="190" />
            </Array>
            <mxPoint x="60" y="210" as="targetPoint" />
            <mxPoint as="offset" />
          </mxGeometry>
        </mxCell>
        <mxCell id="K-Yl6SajvghSehJu1Xfm-18" value="Cập nhật trường thanh toán của đơn hàng" style="html=1;verticalAlign=bottom;endArrow=block;" edge="1" parent="K-Yl6SajvghSehJu1Xfm-3" target="K-Yl6SajvghSehJu1Xfm-4">
          <mxGeometry width="80" relative="1" as="geometry">
            <mxPoint x="60" y="260" as="sourcePoint" />
            <mxPoint x="140" y="260" as="targetPoint" />
          </mxGeometry>
        </mxCell>
        <mxCell id="K-Yl6SajvghSehJu1Xfm-19" value="Trả về kết quả kiểm tra" style="html=1;verticalAlign=bottom;endArrow=open;dashed=1;endSize=8;" edge="1" parent="K-Yl6SajvghSehJu1Xfm-3" source="K-Yl6SajvghSehJu1Xfm-4">
          <mxGeometry relative="1" as="geometry">
            <mxPoint x="160" y="290" as="sourcePoint" />
            <mxPoint x="60" y="290" as="targetPoint" />
            <Array as="points">
              <mxPoint x="140" y="290" />
            </Array>
          </mxGeometry>
        </mxCell>
        <mxCell id="K-Yl6SajvghSehJu1Xfm-23" value="Trả về kết quả kiểm tra" style="html=1;verticalAlign=bottom;endArrow=open;dashed=1;endSize=8;" edge="1" parent="K-Yl6SajvghSehJu1Xfm-3" source="K-Yl6SajvghSehJu1Xfm-4">
          <mxGeometry relative="1" as="geometry">
            <mxPoint x="150" y="380" as="sourcePoint" />
            <mxPoint x="60" y="380" as="targetPoint" />
          </mxGeometry>
        </mxCell>
        <mxCell id="K-Yl6SajvghSehJu1Xfm-4" value=":Database" style="shape=umlLifeline;perimeter=lifelinePerimeter;whiteSpace=wrap;html=1;container=1;collapsible=0;recursiveResize=0;outlineConnect=0;" vertex="1" parent="1">
          <mxGeometry x="660" y="40" width="100" height="480" as="geometry" />
        </mxCell>
        <mxCell id="K-Yl6SajvghSehJu1Xfm-9" value="" style="html=1;points=[];perimeter=orthogonalPerimeter;" vertex="1" parent="K-Yl6SajvghSehJu1Xfm-4">
          <mxGeometry x="45" y="160" width="10" height="290" as="geometry" />
        </mxCell>
        <mxCell id="K-Yl6SajvghSehJu1Xfm-5" value="Khách hàng" style="text;align=center;fontStyle=1;verticalAlign=middle;spacingLeft=3;spacingRight=3;strokeColor=none;rotatable=0;points=[[0,0.5],[1,0.5]];portConstraint=eastwest;" vertex="1" parent="1">
          <mxGeometry x="90" y="90" width="80" height="26" as="geometry" />
        </mxCell>
        <mxCell id="K-Yl6SajvghSehJu1Xfm-10" value="Gửi yêu cầu thanh toán" style="html=1;verticalAlign=bottom;endArrow=block;" edge="1" parent="1" target="K-Yl6SajvghSehJu1Xfm-2">
          <mxGeometry width="80" relative="1" as="geometry">
            <mxPoint x="140" y="160" as="sourcePoint" />
            <mxPoint x="220" y="160" as="targetPoint" />
          </mxGeometry>
        </mxCell>
        <mxCell id="K-Yl6SajvghSehJu1Xfm-11" value="Hiển thị form chọn hình thức thanh toán" style="html=1;verticalAlign=bottom;endArrow=block;" edge="1" parent="1" source="K-Yl6SajvghSehJu1Xfm-2" target="K-Yl6SajvghSehJu1Xfm-1">
          <mxGeometry width="80" relative="1" as="geometry">
            <mxPoint x="230" y="200" as="sourcePoint" />
            <mxPoint x="240" y="200" as="targetPoint" />
            <Array as="points">
              <mxPoint x="240" y="200" />
            </Array>
          </mxGeometry>
        </mxCell>
        <mxCell id="K-Yl6SajvghSehJu1Xfm-12" value="Chọn hình thức" style="html=1;verticalAlign=bottom;endArrow=block;" edge="1" parent="1" target="K-Yl6SajvghSehJu1Xfm-2">
          <mxGeometry width="80" relative="1" as="geometry">
            <mxPoint x="140" y="230" as="sourcePoint" />
            <mxPoint x="220" y="230" as="targetPoint" />
          </mxGeometry>
        </mxCell>
        <mxCell id="K-Yl6SajvghSehJu1Xfm-22" value="Thông báo thanh toán thành công" style="html=1;verticalAlign=bottom;endArrow=open;dashed=1;endSize=8;" edge="1" parent="1" source="K-Yl6SajvghSehJu1Xfm-2">
          <mxGeometry relative="1" as="geometry">
            <mxPoint x="230" y="350" as="sourcePoint" />
            <mxPoint x="140" y="350" as="targetPoint" />
          </mxGeometry>
        </mxCell>
        <mxCell id="K-Yl6SajvghSehJu1Xfm-24" value="Thông báo chọn lại hình thức vận chuyển và thanh toán" style="html=1;verticalAlign=bottom;endArrow=open;dashed=1;endSize=8;" edge="1" parent="1" source="K-Yl6SajvghSehJu1Xfm-3">
          <mxGeometry relative="1" as="geometry">
            <mxPoint x="230" y="440" as="sourcePoint" />
            <mxPoint x="140" y="440" as="targetPoint" />
          </mxGeometry>
        </mxCell>
        <mxCell id="K-Yl6SajvghSehJu1Xfm-25" value="[ if  data ]" style="text;align=center;fontStyle=1;verticalAlign=middle;spacingLeft=3;spacingRight=3;strokeColor=none;rotatable=0;points=[[0,0.5],[1,0.5]];portConstraint=eastwest;" vertex="1" parent="1">
          <mxGeometry x="30" y="290" width="80" height="26" as="geometry" />
        </mxCell>
        <mxCell id="K-Yl6SajvghSehJu1Xfm-26" value="[ else ]" style="text;align=center;fontStyle=1;verticalAlign=middle;spacingLeft=3;spacingRight=3;strokeColor=none;rotatable=0;points=[[0,0.5],[1,0.5]];portConstraint=eastwest;" vertex="1" parent="1">
          <mxGeometry x="30" y="420" width="80" height="26" as="geometry" />
        </mxCell>
      </root>
    </mxGraphModel>
  </diagram>
</mxfile>
